<svg width="100" height="100" viewBox="0 0 100 100" fill="none" xmlns="http://www.w3.org/2000/svg">
<circle cx="50" cy="50" r="50" fill="#FFDE3D"/>
<path d="M70.8879 41.6206L57.4987 39.6747L51.5133 27.5405C51.3498 27.2083 51.0809 26.9393 50.7487 26.7758C49.9155 26.3645 48.903 26.7073 48.4864 27.5405L42.501 39.6747L29.1118 41.6206C28.7426 41.6733 28.4051 41.8473 28.1467 42.111C27.8343 42.4321 27.6622 42.8641 27.6681 43.312C27.6741 43.7599 27.8576 44.1872 28.1784 44.4999L37.8657 53.9446L35.577 67.2811C35.5233 67.5914 35.5576 67.9104 35.6761 68.2022C35.7945 68.4939 35.9923 68.7466 36.2471 68.9316C36.5018 69.1166 36.8033 69.2265 37.1174 69.2489C37.4314 69.2713 37.7454 69.2053 38.0239 69.0583L49.9998 62.7618L61.9758 69.0583C62.3028 69.2323 62.6825 69.2903 63.0463 69.227C63.9639 69.0688 64.5809 68.1987 64.4227 67.2811L62.134 53.9446L71.8213 44.4999C72.085 44.2415 72.259 43.904 72.3118 43.5348C72.4541 42.612 71.8108 41.7577 70.8879 41.6206Z" fill="black"/>
</svg>
